<?xml version="1.0" encoding="utf-8"?>
<!-- Generator: Adobe Illustrator 22.0.1, SVG Export Plug-In . SVG Version: 6.00 Build 0)  -->
<svg version="1.1" id="Шар_1" xmlns="http://www.w3.org/2000/svg" xmlns:xlink="http://www.w3.org/1999/xlink" x="0px" y="0px"
	 viewBox="0 0 1000 1000" style="enable-background:new 0 0 1000 1000;" xml:space="preserve">
<style type="text/css">
	.st0{fill:#EE7627;}
	.st1{fill:#337FC2;}
</style>
<path class="st0" d="M673.6,559.5c-0.6-0.6-1.2-1.2-1.8-1.8c-9.7-9.6-20.1-18.3-31.1-25.8c-13.8-9.5-28.6-17.4-44.1-23.5
	c34.9-25.2,57.7-66.2,57.7-112.5c0-76.4-62.3-138.7-138.9-138.7c-76.5,0-138.8,62.2-138.8,138.7c0,46.2,22.7,87.2,57.7,112.5
	c-15.3,6-29.9,13.7-43.5,23.1c-11.2,7.7-21.8,16.4-31.6,26.3L358,559c-40.9,41.5-63.5,96.5-63.5,154.8c0,11.4,9.3,20.8,20.8,20.8
	c11.4,0,20.8-9.3,20.8-20.8c0-39.8,13.1-76.6,35.1-106.4c10.1-13.7,22.1-25.8,35.5-36.1c30.2-23.1,67.9-36.8,108.8-36.8
	c41.2,0,79.2,13.9,109.5,37.3c13.5,10.4,25.5,22.7,35.6,36.5c8.6,11.8,15.8,24.6,21.4,38.3c11.5-7.9,23.9-14.6,37-19.8
	C708.2,602.1,693,579.3,673.6,559.5z M515.5,493.1c-53.6,0-97.3-43.6-97.3-97.1s43.7-97.1,97.3-97.1c53.6,0,97.3,43.6,97.3,97.1
	S569.2,493.1,515.5,493.1z"/>
<path class="st0" d="M769.8,154.3H261.1c-29.3,0-53.2,23.9-53.2,53.2v576.9c0,29.3,23.9,53.2,53.2,53.2h340.3
	c-1.9-10.7-2.8-21.8-2.8-33H261.1c-11.1,0-20.2-9-20.2-20.2V207.5c0-11.1,9-20.2,20.2-20.2h508.7c11.1,0,20.2,9,20.2,20.2v405.6
	c11.3,0,22.3,1,33,2.8V207.5C823,178.1,799.1,154.3,769.8,154.3z"/>
<path class="st1" d="M780,931.1c-75.3,0-136.5-61.2-136.5-136.5c0-75.3,61.2-136.5,136.5-136.5c75.3,0,136.5,61.2,136.5,136.5
	C916.4,869.8,855.2,931.1,780,931.1z M780,682.7c-61.7,0-111.9,50.2-111.9,111.9c0,61.7,50.2,111.9,111.9,111.9
	c61.7,0,111.9-50.2,111.9-111.9C891.8,732.9,841.7,682.7,780,682.7z"/>
<g>
	<path class="st1" d="M864.6,782.8c3.1,3.1,4.9,7.3,4.8,11.7c0,4.4-1.7,8.6-4.9,11.7c-3.1,3.1-7.3,4.8-11.7,4.9l-53.7,0v53.7
		c0,4.4-1.7,8.6-4.9,11.7c-3.1,3.1-7.3,4.8-11.7,4.9l0,0c-9.1,0-16.5-7.4-16.5-16.5v-53.7h-53.7c-9.1,0-16.5-7.4-16.5-16.5
		c0-9.1,7.4-16.5,16.5-16.5h53.7v-53.7c0-9.1,7.4-16.5,16.5-16.5c9.1,0,16.5,7.4,16.5,16.5V778l53.7,0
		C857.3,778,861.5,779.7,864.6,782.8z"/>
</g>
</svg>
