<?xml version="1.0" encoding="utf-8"?>
<!-- Generator: Adobe Illustrator 25.4.1, SVG Export Plug-In . SVG Version: 6.00 Build 0)  -->
<svg version="1.1" id="Шар_1" xmlns="http://www.w3.org/2000/svg" xmlns:xlink="http://www.w3.org/1999/xlink" x="0px" y="0px"
	 viewBox="0 0 1000 1000" style="enable-background:new 0 0 1000 1000;" xml:space="preserve">
<style type="text/css">
	.st0{fill:#222222;}
	.st1{fill:#777777;}
	.st2{fill:#EE7627;}
</style>
<path class="st0" d="M376.9,395.9c0-75.2,60.4-136.8,135.3-138.7c-75,1.7-135.6,63.2-135.6,138.7c0,46.2,22.7,87.2,57.7,112.5
	c-15.3,6-29.9,13.7-43.5,23.1c-11.2,7.7-21.8,16.4-31.6,26.3L358,559c-14.7,14.9-27,31.6-36.8,49.5c9.7-17.7,21.9-34.2,36.4-49
	c0.6-0.6,1.2-1.2,1.8-1.8c9.7-9.6,20.1-18.3,31.1-25.8c13.8-9.5,28.6-17.4,44.1-23.5C399.7,483.2,376.9,442.2,376.9,395.9z
	 M520.5,299c51.3,2.6,92.3,45.1,92.3,97c0,51.8-40.9,94.4-92.3,97c51.4-2.5,92.5-45.1,92.5-97S571.9,301.5,520.5,299z M660,607.4
	c-10.1-13.7-22.1-25.8-35.5-36.1c-25.7-19.6-56.8-32.5-90.6-35.9c34.1,3.5,65.4,16.5,91.1,36.4c13.5,10.4,25.5,22.7,35.6,36.5
	c7,9.6,13.1,19.8,18.1,30.7C673.5,627.8,667.2,617.2,660,607.4z M712.5,613.2c2.3,4.5,4.4,9,6.4,13.6c0,0,0,0,0.1,0
	C717,622.2,714.8,617.7,712.5,613.2z"/>
<path class="st0" d="M312.2,626.8C312.2,626.8,312.2,626.8,312.2,626.8c2.1-4.6,4.2-9.1,6.5-13.6
	C316.4,617.7,314.2,622.2,312.2,626.8z M418.4,396c0-51.8,41-94.4,92.3-97c-51.4,2.5-92.5,45.1-92.5,97s41.1,94.5,92.5,97
	C459.3,490.4,418.4,447.8,418.4,396z M371.2,607.4c-7.2,9.8-13.5,20.4-18.7,31.6c5-10.8,11.1-21.1,18.1-30.7
	c10.1-13.8,22.1-26.1,35.6-36.5c25.8-19.9,57-32.9,91.1-36.4c-33.9,3.4-65,16.2-90.6,35.9C393.3,581.6,381.3,593.7,371.2,607.4z
	 M673.2,559l-1.2-1.2c-9.8-9.9-20.4-18.6-31.6-26.3c-13.6-9.4-28.2-17.1-43.5-23.1c35-25.3,57.7-66.3,57.7-112.5
	c0-75.5-60.6-137-135.6-138.7c75,1.9,135.3,63.5,135.3,138.7c0,46.3-22.8,87.3-57.7,112.5c15.5,6.1,30.3,14,44.1,23.5
	c11,7.5,21.4,16.2,31.1,25.8c0.6,0.6,1.2,1.2,1.8,1.8c14.5,14.8,26.7,31.3,36.4,49C700.2,590.6,687.9,573.9,673.2,559z"/>
<path class="st1" d="M718.9,626.8c-2-4.6-4.1-9.2-6.4-13.6c-0.8-1.6-1.6-3.2-2.5-4.7c-9.7-17.7-21.9-34.2-36.4-49
	c-0.6-0.6-1.2-1.2-1.8-1.8c-9.7-9.6-20.1-18.3-31.1-25.8c-13.8-9.5-28.6-17.4-44.1-23.5c34.9-25.2,57.7-66.2,57.7-112.5
	c0-75.2-60.4-136.8-135.3-138.7c-0.6,0-1.2,0-1.8,0c-0.5,0-0.9,0-1.4,0c-0.6,0-1.2,0-1.8,0c-0.6,0-1.2,0-1.8,0
	c-75,1.9-135.3,63.5-135.3,138.7c0,46.3,22.8,87.3,57.7,112.5c-15.5,6.1-30.3,14-44.1,23.5c-11,7.5-21.4,16.2-31.1,25.8
	c-0.6,0.6-1.2,1.2-1.8,1.8c-14.5,14.8-26.7,31.3-36.4,49c-0.9,1.6-1.7,3.1-2.5,4.7c-2.3,4.5-4.4,9-6.4,13.6
	c-11.7,27.1-17.8,56.6-17.8,87c0,11.4,9.3,20.8,20.8,20.8c11.4,0,20.8-9.3,20.8-20.8c0-23.8,4.7-46.4,13.1-67.2
	c0.3-0.9,0.7-1.7,1.1-2.6c0.2-0.6,0.5-1.1,0.7-1.7l0.6-1.3c0.3-0.7,0.6-1.4,1-2.1c5.1-11.2,11.4-21.8,18.7-31.6
	c10.1-13.7,22.1-25.8,35.5-36.1c25.7-19.6,56.8-32.5,90.6-35.9c0,0,0,0,0.1,0c3.5-0.3,7-0.6,10.6-0.8c0.6,0,1.3-0.1,1.9-0.1
	c1.9-0.1,3.8-0.1,5.8-0.1c1.9,0,3.7,0,5.6,0.1c0.6,0,1.3,0,1.9,0.1c3.6,0.2,7.1,0.4,10.6,0.8c0,0,0,0,0.1,0
	c33.9,3.4,65,16.2,90.6,35.9c13.4,10.3,25.4,22.4,35.5,36.1c7.2,9.8,13.5,20.4,18.7,31.6c0.3,0.7,0.7,1.4,1,2.1
	c0.2,0.4,0.4,0.9,0.6,1.3c0.2,0.5,0.5,1.1,0.7,1.7c0.4,0.9,0.7,1.7,1.1,2.6c8.4,20.8,13.1,43.5,13.1,67.2c0,11.5,9.4,20.8,20.8,20.8
	c11.5,0,20.8-9.4,20.8-20.8C736.7,683.4,730.6,654,718.9,626.8z M520.5,493c-0.8,0-1.6,0.1-2.5,0.1c-0.8,0-1.5,0-2.3,0
	c-0.8,0-1.7,0-2.5,0c-0.8,0-1.6,0-2.5-0.1c-51.4-2.5-92.5-45.1-92.5-97s41.1-94.5,92.5-97c0.8,0,1.6-0.1,2.5-0.1c0.8,0,1.7,0,2.5,0
	c0.8,0,1.5,0,2.3,0c0.8,0,1.6,0,2.5,0.1c51.4,2.5,92.5,45.1,92.5,97S571.9,490.5,520.5,493z"/>
<path class="st2" d="M776.6,154.7c-0.9-0.1-1.8-0.2-2.7-0.3C774.8,154.5,775.7,154.6,776.6,154.7z"/>
<path class="st2" d="M784.3,156.3c-1.3-0.4-2.5-0.7-3.8-0.9C781.8,155.6,783.1,156,784.3,156.3z"/>
<path class="st2" d="M820.5,191.3c-5.2-16.3-18.2-29.2-34.5-34.5C802.3,162,815.3,174.9,820.5,191.3z"/>
<path class="st2" d="M821.9,196.8c-0.3-1.3-0.6-2.6-0.9-3.8C821.3,194.2,821.7,195.5,821.9,196.8z"/>
<path class="st2" d="M209.9,193c-0.4,1.3-0.7,2.5-0.9,3.8C209.2,195.5,209.6,194.2,209.9,193z"/>
<path class="st2" d="M244.9,156.8c-16.3,5.2-29.2,18.2-34.5,34.5C215.6,174.9,228.6,162,244.9,156.8z"/>
<path class="st2" d="M250.4,155.4c-1.3,0.3-2.6,0.6-3.8,0.9C247.8,156,249.1,155.6,250.4,155.4z"/>
<path class="st2" d="M257,154.5c-0.9,0.1-1.8,0.1-2.7,0.3C255.2,154.6,256.1,154.5,257,154.5z"/>
<path class="st1" d="M821.9,196.8c-0.3-1.3-0.6-2.6-0.9-3.8c0,0,0,0,0,0c-0.2-0.5-0.3-1.1-0.5-1.7c-5.2-16.3-18.2-29.2-34.5-34.5
	c-0.5-0.2-1.1-0.3-1.6-0.5c-1.3-0.4-2.5-0.7-3.8-0.9c-0.4-0.1-0.9-0.2-1.3-0.2c-0.9-0.2-1.8-0.3-2.6-0.4c-0.9-0.1-1.8-0.2-2.7-0.3
	c-1.3-0.1-2.7-0.2-4.1-0.2H261.1c-1.4,0-2.7,0-4.1,0.2c-0.9,0.1-1.8,0.2-2.7,0.3c-0.9,0.1-1.8,0.2-2.6,0.4c-0.4,0.1-0.9,0.2-1.3,0.2
	c-1.3,0.3-2.6,0.6-3.8,0.9c-0.5,0.2-1.1,0.3-1.6,0.5c-16.3,5.2-29.2,18.2-34.5,34.5c-0.2,0.5-0.3,1.1-0.5,1.7c0,0,0,0,0,0
	c-0.4,1.3-0.7,2.5-0.9,3.8c-0.7,3.5-1.1,7-1.1,10.7v576.9c0,29.3,23.9,53.2,53.2,53.2h508.7c29.3,0,53.2-23.9,53.2-53.2V207.5
	C823,203.8,822.6,200.3,821.9,196.8z M790,784.4c0,11.2-9.1,20.2-20.2,20.2H261.1c-11.1,0-20.2-9-20.2-20.2V207.5c0-0.4,0-0.8,0-1.1
	c0-0.6,0.1-1.1,0.2-1.7c0.1-0.4,0.1-0.9,0.2-1.3c0-0.2,0.1-0.5,0.2-0.7c0.4-1.7,1-3.4,1.9-4.9c0.1-0.2,0.2-0.3,0.3-0.5
	c0.4-0.7,0.8-1.4,1.3-2c0.3-0.4,0.7-0.9,1-1.3c0.5-0.6,1.1-1.2,1.8-1.8c0.4-0.3,0.8-0.7,1.3-1c0.6-0.5,1.3-0.9,2-1.3
	c0.2-0.1,0.3-0.2,0.5-0.3c1.5-0.8,3.1-1.4,4.9-1.9c0.2,0,0.5-0.1,0.7-0.1c0.4-0.1,0.9-0.2,1.3-0.2c0.5-0.1,1.1-0.1,1.7-0.1
	c0.4,0,0.7,0,1.1,0h508.7c0.4,0,0.8,0,1.1,0c0.6,0,1.1,0.1,1.7,0.1c0.4,0.1,0.9,0.1,1.3,0.2c0.2,0,0.5,0.1,0.7,0.1
	c1.7,0.4,3.4,1,4.9,1.9c0.2,0.1,0.3,0.2,0.5,0.3c0.7,0.4,1.4,0.8,2,1.3c0.4,0.3,0.9,0.7,1.3,1c0.6,0.5,1.2,1.1,1.8,1.8
	c0.3,0.4,0.7,0.8,1,1.3c0.5,0.6,0.9,1.3,1.3,2c0.1,0.2,0.2,0.3,0.3,0.5c0.8,1.5,1.5,3.1,1.9,4.9c0,0.2,0.1,0.5,0.2,0.7
	c0.1,0.4,0.2,0.8,0.2,1.3c0.1,0.5,0.1,1.1,0.2,1.7c0,0.4,0,0.7,0,1.1V784.4z"/>
</svg>
