<?xml version="1.0" encoding="utf-8"?>
<!-- Generator: Adobe Illustrator 22.0.1, SVG Export Plug-In . SVG Version: 6.00 Build 0)  -->
<svg version="1.1" xmlns="http://www.w3.org/2000/svg" xmlns:xlink="http://www.w3.org/1999/xlink" x="0px" y="0px"
	 viewBox="0 0 1000 1000" style="enable-background:new 0 0 1000 1000;" xml:space="preserve">
<style type="text/css">
	.st0{fill:#777777;}
</style>
<g id="Шар_1">
</g>
<g id="Шар_2">
	<g>
		<g>
			<g>
				<path class="st0" d="M873.3,157.5l-36.8-36.8c-10.4-10.4-24.2-16.1-38.9-16.1s-28.5,5.7-38.9,16.1L307.3,572.3
					c-7.6,7.6-13.5,17.1-16.9,27.3l-31.3,92.9c-3.9,11.6-1.4,24.4,6.5,33.3c0.4,0.5,0.9,1,1.3,1.4c6.3,6.3,14.9,9.6,23.7,9.6
					c3.7,0,7.4-0.6,11-1.8l92.9-31.3c10.2-3.4,19.7-9.3,27.3-16.9l451.5-451.5c10.4-10.4,16.1-24.2,16.1-38.9
					S883.7,167.9,873.3,157.5z M385,675.3l-92.9,31.3c-1.5,0.5-3,0.2-3.9-0.6c0,0-0.1-0.1-0.1-0.2c-0.8-0.9-1-2.3-0.5-3.7l31.3-92.9
					c0.3-0.9,0.6-1.7,1-2.5l67.7,67.8C386.7,674.7,385.8,675,385,675.3z M852.1,214.1L410.9,655.3l-72.1-72.1L780,142
					c4.7-4.7,11-7.3,17.7-7.3c6.7,0,12.9,2.6,17.7,7.3l36.8,36.8c4.7,4.7,7.3,11,7.3,17.7C859.4,203.1,856.8,209.4,852.1,214.1z"/>
			</g>
		</g>
		<path class="st0" d="M729.8,435.4v361.1c0,16.5-13.5,30-30,30H181.1c-16.5,0-30-13.5-30-30V277.8c0-16.5,13.5-30,30-30h394.2
			l40-40H181.1c-38.6,0-70,31.4-70,70v518.7c0,38.6,31.4,70,70,70h518.7c38.6,0,70-31.4,70-70V395.4L729.8,435.4z"/>
	</g>
</g>
</svg>
