<?xml version="1.0" encoding="utf-8"?>
<!-- Generator: Adobe Illustrator 22.0.1, SVG Export Plug-In . SVG Version: 6.00 Build 0)  -->
<svg version="1.1" id="Шар_1" xmlns="http://www.w3.org/2000/svg" xmlns:xlink="http://www.w3.org/1999/xlink" x="0px" y="0px"
	 viewBox="0 0 1000 1000" style="enable-background:new 0 0 1000 1000;" xml:space="preserve">
<style type="text/css">
	.st0{fill:#777777;}
	.st1{fill:none;}
</style>
<path class="st0" d="M809.5,384.1L653.5,228.2c-12.2-12.2-28.8-19.1-46.1-19.1H226.1c-27.6,0-50,22.4-50,50v552.5
	c0,27.6,22.4,50,50,50h552.5c27.6,0,50-22.4,50-50V430.3C828.6,413,821.7,396.4,809.5,384.1z M246.8,255h234v104.3
	c0,13.1,10.6,23.7,23.7,23.7c13.1,0,23.7-10.6,23.7-23.7V255h42.3v178.6c0,27.6-22.4,50-50,50H296.8c-27.6,0-50-22.4-50-50V255z
	 M565,803.7H246.8c-11.1,0-20-9-20-20c0-11,8.9-20,20-20H565c11,0,20,9,20,20C585,794.7,576,803.7,565,803.7z M226.8,703.7
	c0-11,8.9-20,20-20h235.5c11,0,20,9,20,20c0,11-9,20-20,20H246.8C235.8,723.7,226.8,714.7,226.8,703.7z M674.3,643.7H246.8
	c-11.1,0-20-9-20-20c0-11,8.9-20,20-20h427.5c11,0,20,9,20,20C694.3,634.7,685.4,643.7,674.3,643.7z"/>
<line class="st1" x1="528.3" y1="239.7" x2="488.3" y2="239.7"/>
</svg>
